<?xml version="1.0" encoding="UTF-8" standalone="no"?>
<svg
   width="752pt"
   height="752pt"
   version="1.1"
   viewBox="0 0 752 752"
   id="svg88"
   sodipodi:docname="click.svg"
   inkscape:version="1.2.1 (9c6d41e410, 2022-07-14, custom)"
   xmlns:inkscape="http://www.inkscape.org/namespaces/inkscape"
   xmlns:sodipodi="http://sodipodi.sourceforge.net/DTD/sodipodi-0.dtd"
   xmlns="http://www.w3.org/2000/svg"
   xmlns:svg="http://www.w3.org/2000/svg">
  <sodipodi:namedview
     id="namedview90"
     pagecolor="#505050"
     bordercolor="#ffffff"
     borderopacity="1"
     inkscape:showpageshadow="0"
     inkscape:pageopacity="0"
     inkscape:pagecheckerboard="1"
     inkscape:deskcolor="#505050"
     inkscape:document-units="pt"
     showgrid="false"
     inkscape:zoom="0.51861702"
     inkscape:cx="502.29744"
     inkscape:cy="655.58974"
     inkscape:window-width="1280"
     inkscape:window-height="670"
     inkscape:window-x="0"
     inkscape:window-y="24"
     inkscape:window-maximized="1"
     inkscape:current-layer="svg88" />
  <defs
     id="defs76">
    <clipPath
       id="b">
      <path
         d="m139.21 139.21h473.58v473.58h-473.58z"
         id="path70" />
    </clipPath>
    <clipPath
       id="a">
      <path
         d="m370 371h242.79v241.79h-242.79z"
         id="path73" />
    </clipPath>
  </defs>
  <g
     clip-path="url(#b)"
     id="g80"
     style="fill:#eeeeee;fill-opacity:1">
    <path
       d="m385.29 586.6-7.3984-33.297-1.8906-0.003906c-35.074 0-69.359-10.398-98.523-29.887-29.164-19.488-51.895-47.188-65.312-79.59-13.422-32.406-16.934-68.066-10.086-102.46 6.8438-34.402 23.738-66 48.543-90.797 24.805-24.801 56.406-41.688 90.809-48.523 34.398-6.8398 70.059-3.3242 102.46 10.105 32.402 13.426 60.094 36.16 79.578 65.328 19.48 29.168 29.875 63.457 29.867 98.531v2.5898l32.594 7.3984v0.003907c10.125 2.3086 19.121 8.0977 25.418 16.352 5.4609-48.711-4.332-97.918-28.027-140.83-23.691-42.91-60.121-77.41-104.25-98.738-44.137-21.332-93.801-28.438-142.14-20.34-48.348 8.0977-92.988 30.996-127.77 65.543-34.777 34.543-57.977 79.031-66.395 127.32-8.4219 48.289-1.6484 98 19.387 142.28 21.031 44.277 55.289 80.934 98.039 104.91s91.891 34.105 140.64 28.973c-7.8477-6.2891-13.324-15.055-15.539-24.863z"
       id="path78"
       style="fill:#eeeeee;fill-opacity:1" />
  </g>
  <path
     d="m349.47 429.13c-17.199-8.5703-29.195-24.926-32.195-43.906-3.0039-18.98 3.3594-38.238 17.074-51.699 13.719-13.457 33.098-19.449 52.016-16.086 18.918 3.3633 35.043 15.672 43.281 33.031l64.785 14.801c-2.7422-30.117-16.855-58.055-39.469-78.133-22.609-20.078-52.023-30.785-82.25-29.949-30.227 0.83984-59 13.16-80.465 34.461-21.465 21.301-34.008 49.977-35.078 80.195-1.0703 30.223 9.4102 59.715 29.316 82.48 19.902 22.766 47.73 37.094 77.82 40.07z"
     id="path82"
     style="fill:#eeeeee;fill-opacity:1" />
  <g
     clip-path="url(#a)"
     id="g86"
     style="fill:#eeeeee;fill-opacity:1">
    <path
       d="m534.32 492.18 52.168-52.168c2.5508-2.5195 4.0977-5.8828 4.3555-9.457 0.25781-3.5781-0.79297-7.125-2.957-9.9844-2.1602-2.8594-5.2852-4.8398-8.7969-5.5703l-190.36-43.324c-1.1055-0.25-2.2344-0.37109-3.3672-0.37109-4.5234-0.003906-8.7969 2.0586-11.609 5.5977-2.8086 3.5391-3.8516 8.168-2.8203 12.57l43.324 190.54c0.73828 3.3086 2.5859 6.2617 5.2383 8.3672 2.6562 2.1094 5.9492 3.2422 9.3398 3.2109 3.918-0.015625 7.6719-1.5859 10.434-4.3633l52.98-52.98 69.594 69.594c7.5156 7.5117 18.469 10.449 28.734 7.6953 10.266-2.75 18.281-10.766 21.031-21.031 2.7539-10.266-0.18359-21.219-7.6953-28.734z"
       id="path84"
       style="fill:#eeeeee;fill-opacity:1" />
  </g>
</svg>
