<?xml version="1.0" encoding="UTF-8" standalone="no"?>
<svg
   width="752pt"
   height="752pt"
   version="1.1"
   viewBox="0 0 752 752"
   id="svg74"
   sodipodi:docname="farm.svg"
   inkscape:version="1.2.1 (9c6d41e410, 2022-07-14, custom)"
   xmlns:inkscape="http://www.inkscape.org/namespaces/inkscape"
   xmlns:sodipodi="http://sodipodi.sourceforge.net/DTD/sodipodi-0.dtd"
   xmlns="http://www.w3.org/2000/svg"
   xmlns:svg="http://www.w3.org/2000/svg">
  <defs
     id="defs78" />
  <sodipodi:namedview
     id="namedview76"
     pagecolor="#505050"
     bordercolor="#ffffff"
     borderopacity="1"
     inkscape:showpageshadow="0"
     inkscape:pageopacity="0"
     inkscape:pagecheckerboard="1"
     inkscape:deskcolor="#505050"
     inkscape:document-units="pt"
     showgrid="false"
     inkscape:zoom="0.51861702"
     inkscape:cx="502.29744"
     inkscape:cy="501.33333"
     inkscape:window-width="1280"
     inkscape:window-height="670"
     inkscape:window-x="0"
     inkscape:window-y="24"
     inkscape:window-maximized="1"
     inkscape:current-layer="svg74" />
  <g
     id="g72"
     style="fill:#eeeeee;fill-opacity:1">
    <path
       d="m560.99 526.31h-9.9883-27.195-40.422-49.16-53.832-54.34-50.688-43.012-30.801c-4.8555 0-9.7109-0.046875-14.613 0h-0.64844c7.7227 7.7227 15.402 15.402 23.125 23.125v-18.824-45.23-54.758-47.359c0-7.6758 0.14062-15.402 0-23.078v-0.32422c-1.0625 3.8867-2.1289 7.7695-3.1445 11.656 9.5273-12.535 19.055-25.066 28.582-37.602 15.168-19.934 30.34-39.867 45.461-59.801 3.4219-4.5312 6.8906-9.0664 10.312-13.598l-8.2773 8.2773c11.609-5.2266 23.215-10.453 34.871-15.68 18.453-8.2773 36.859-16.559 55.312-24.836 4.2539-1.8945 8.5078-3.8398 12.766-5.7344h-23.355c11.609 5.2266 23.215 10.453 34.871 15.68 18.453 8.2773 36.859 16.559 55.312 24.836 4.2539 1.8945 8.5078 3.8398 12.766 5.7344-2.7734-2.7734-5.5508-5.5508-8.2773-8.2773 9.5273 12.535 19.055 25.066 28.582 37.602 15.168 19.934 30.34 39.867 45.461 59.801 3.4219 4.5312 6.8906 9.0664 10.312 13.598-1.0625-3.8867-2.1289-7.7695-3.1445-11.656v18.824 45.23 54.758 47.359c0 7.6758-0.09375 15.402 0 23.078v0.32422c0 5.918 2.5898 12.164 6.7539 16.371 4.0234 4.0234 10.59 7.0312 16.371 6.7539 5.9648-0.27734 12.164-2.2188 16.371-6.7539 4.1641-4.5312 6.7539-10.082 6.7539-16.371v-25.344-57.488-62.48-40.375c0-5.5508 0.046875-11.145-3.4688-16-2.4492-3.4219-5.1328-6.707-7.6758-10.082-11.469-15.078-22.895-30.152-34.363-45.184-11.379-14.938-22.707-29.875-34.086-44.812-2.543-3.375-5.1328-6.7539-7.6758-10.082-2.6367-3.4219-5.3203-7.1211-9.2969-9.0195-1.7109-0.78516-3.4219-1.5273-5.1328-2.3125-16.656-7.4961-33.305-15.035-50-22.527-14.938-6.707-29.875-13.41-44.812-20.117-0.60156-0.27734-1.2031-0.55469-1.8047-0.78516-0.14062-0.046875-0.23047-0.09375-0.37109-0.14062-0.046875 0-0.046875 0-0.09375-0.046875-0.92578-0.41797-0.046875 0-2.7734-1.1562-4.9023-2.082-9.8984-2.3594-15.078-1.1562-2.2188 0.50781-5.6406 2.4062-8.0938 3.4688-6.0117 2.6836-11.977 5.3633-17.992 8.0938-18.684 8.418-37.367 16.789-56.055 25.207-6.9844 3.1445-13.969 6.2891-20.949 9.4336-1.6172 0.73828-3.2383 1.4336-4.8086 2.1719-4.0234 1.8945-6.5664 5.5977-9.2031 9.0195-7.8164 10.223-15.586 20.488-23.355 30.754-12.672 16.648-25.344 33.297-38.016 49.996-7.4453 9.8047-15.215 19.469-22.43 29.508-3.5156 4.9023-3.375 10.637-3.375 16.234v16.047 55.406 63.266 44.168 6.4297c0 12.488 10.59 23.125 23.125 23.125h9.9883 27.195 40.422 49.16 53.832 54.34 50.688 43.012 30.801c4.8555 0 9.7109 0.046875 14.613 0h0.64844c5.918 0 12.164-2.5898 16.371-6.7539 4.0234-4.0234 7.0312-10.59 6.7539-16.371-0.27734-5.9648-2.2188-12.164-6.7539-16.371-4.5312-4.2109-10.125-6.8477-16.371-6.8477z"
       id="path62"
       style="fill:#eeeeee;fill-opacity:1" />
    <path
       d="m467.66 389.18h-18.684-44.859-54.297-46.941c-7.6328 0-15.262-0.09375-22.895 0h-0.32422c-12.488 0-23.125 10.59-23.125 23.125v46.48 73.582 17.02c0 12.488 10.59 23.125 23.125 23.125h18.684 44.859 54.297 46.941c7.6328 0 15.262 0.09375 22.895 0h0.32422c12.488 0 23.125-10.59 23.125-23.125v-46.48-73.582-17.02c0-5.918-2.5898-12.164-6.7539-16.371-4.0234-3.9805-10.59-7.0312-16.371-6.7539-5.9648 0.27734-12.164 2.2188-16.371 6.7539-4.1641 4.5312-6.7539 10.082-6.7539 16.371v46.48 73.582 17.02c7.7227-7.7227 15.402-15.402 23.125-23.125h-18.684-44.859-54.297-46.941c-7.6328 0-15.262-0.14062-22.895 0h-0.32422c7.7227 7.7227 15.402 15.402 23.125 23.125v-46.48-73.582-17.02c-7.7227 7.7227-15.402 15.402-23.125 23.125h18.684 44.859 54.297 46.941c7.6328 0 15.262 0.09375 22.895 0h0.32422c5.918 0 12.164-2.5898 16.371-6.7539 4.0234-4.0234 7.0312-10.59 6.7539-16.371-0.27734-5.9648-2.2188-12.164-6.7539-16.371-4.5312-4.1211-10.082-6.7539-16.371-6.7539z"
       id="path64"
       style="fill:#eeeeee;fill-opacity:1" />
    <path
       d="m350.57 412.3v46.48 73.582 17.02c0 5.918 2.5898 12.164 6.7539 16.371 4.0234 4.0234 10.59 7.0312 16.371 6.7539 5.9648-0.27734 12.164-2.2188 16.371-6.7539 4.1641-4.5312 6.7539-10.082 6.7539-16.371v-46.48-73.582-17.02c0-5.918-2.5898-12.164-6.7539-16.371-4.0234-4.0234-10.59-7.0312-16.371-6.7539-5.9648 0.27734-12.164 2.2188-16.371 6.7539-4.1211 4.5312-6.7539 10.129-6.7539 16.371z"
       id="path66"
       style="fill:#eeeeee;fill-opacity:1" />
    <path
       d="m383.49 315.79c0 1.4805-0.09375 2.9609-0.32422 4.4844 0.27734-2.0352 0.55469-4.1172 0.83203-6.1523-0.41797 2.8672-1.1562 5.6406-2.2656 8.3711 0.78516-1.8516 1.5742-3.6992 2.3125-5.5039-1.1562 2.6367-2.543 5.043-4.2539 7.3086 1.2031-1.5742 2.4062-3.0977 3.6055-4.6719-1.7578 2.2188-3.7461 4.207-5.9648 5.9648 1.5742-1.2031 3.0977-2.4062 4.6719-3.6055-2.2656 1.7109-4.7188 3.1445-7.3086 4.2539 1.8516-0.78516 3.6992-1.5742 5.5039-2.3125-2.6836 1.1094-5.457 1.8516-8.3711 2.2656 2.0352-0.27734 4.1172-0.55469 6.1523-0.83203-3.0078 0.37109-5.9648 0.37109-8.9258 0 2.0352 0.27734 4.1172 0.55469 6.1523 0.83203-2.8672-0.41797-5.6406-1.1562-8.3711-2.2656 1.8516 0.78516 3.6992 1.5742 5.5039 2.3125-2.6367-1.1562-5.043-2.543-7.3086-4.2539 1.5742 1.2031 3.0977 2.4062 4.6719 3.6055-2.2188-1.7578-4.207-3.7461-5.9648-5.9648 1.2031 1.5742 2.4062 3.0977 3.6055 4.6719-1.7109-2.2656-3.1445-4.7188-4.2539-7.3086 0.78516 1.8516 1.5742 3.6992 2.3125 5.5039-1.1094-2.6836-1.8516-5.457-2.2656-8.3711 0.27734 2.0352 0.55469 4.1172 0.83203 6.1523-0.37109-3.0078-0.37109-5.9648 0-8.9258-0.27734 2.0352-0.55469 4.1172-0.83203 6.1523 0.41797-2.8672 1.1562-5.6406 2.2656-8.3711-0.78516 1.8516-1.5742 3.6992-2.3125 5.5039 1.1562-2.6367 2.543-5.043 4.2539-7.3086-1.2031 1.5742-2.4062 3.0977-3.6055 4.6719 1.7578-2.2188 3.7461-4.207 5.9648-5.9648-1.5742 1.2031-3.0977 2.4062-4.6719 3.6055 2.2656-1.7109 4.7188-3.1445 7.3086-4.2539-1.8516 0.78516-3.6992 1.5742-5.5039 2.3125 2.6836-1.1094 5.457-1.8516 8.3711-2.2656-2.0352 0.27734-4.1172 0.55469-6.1523 0.83203 3.0078-0.37109 5.9648-0.37109 8.9258 0-2.0352-0.27734-4.1172-0.55469-6.1523-0.83203 2.8672 0.41797 5.6406 1.1562 8.3711 2.2656-1.8516-0.78516-3.6992-1.5742-5.5039-2.3125 2.6367 1.1562 5.043 2.543 7.3086 4.2539-1.5742-1.2031-3.0977-2.4062-4.6719-3.6055 2.2188 1.7578 4.207 3.7461 5.9648 5.9648-1.2031-1.5742-2.4062-3.0977-3.6055-4.6719 1.7109 2.2656 3.1445 4.7188 4.2539 7.3086-0.78516-1.8516-1.5742-3.6992-2.3125-5.5039 1.1094 2.6836 1.8516 5.457 2.2656 8.3711-0.27734-2.0352-0.55469-4.1172-0.83203-6.1523 0.23438 1.4375 0.32422 2.918 0.32422 4.4414 0.046874 5.9648 2.543 12.117 6.7539 16.371 4.0234 4.0234 10.59 7.0312 16.371 6.7539 5.9648-0.27734 12.164-2.2188 16.371-6.7539 4.1172-4.4844 6.8438-10.129 6.7539-16.371-0.09375-10.637-3.0508-22.105-9.2969-30.848-2.082-2.8672-4.207-5.8281-6.707-8.3711-2.4492-2.543-5.457-4.7188-8.2773-6.8438-4.3008-3.2383-9.2031-5.3203-14.246-7.168-10.129-3.7461-22.43-3.6992-32.742-0.78516-10.035 2.8672-19.98 8.7422-26.684 16.789-2.1719 2.6367-4.4414 5.4102-6.2422 8.3711-1.8945 3.0977-3.1914 6.5195-4.5312 9.8516-2.082 5.1328-2.8203 10.59-3.2852 16.094-0.46094 5.457 0.32422 11.285 1.5742 16.602 1.25 5.2734 3.4688 10.5 6.2891 15.125 2.6836 4.3477 5.9648 8.6484 9.7578 12.07 3.9766 3.5625 8.418 6.9375 13.273 9.2031 3.0508 1.3867 6.2891 2.8672 9.5742 3.8398 3.6523 1.0625 7.5859 1.4805 11.332 1.8945 5.5508 0.64844 11.191-0.14062 16.648-1.1562 5.5977-1.0625 11.191-3.4688 16.094-6.3828 4.8086-2.8672 9.5273-6.5195 13.133-10.82 5.2734-6.3359 8.5078-11.84 11.422-19.609 2.1289-5.5977 2.9141-11.887 2.9609-17.852 0.046876-5.875-2.6367-12.211-6.7539-16.371-4.0234-4.0234-10.59-7.0312-16.371-6.7539-12.672 0.55469-23.031 10.125-23.172 23.121z"
       id="path68"
       style="fill:#eeeeee;fill-opacity:1" />
    <path
       d="m582.78 526.31h-11.191-30.43-45-54.898-60.168-60.723-56.609-47.82-34.27c-5.457 0-10.914-0.046875-16.371 0h-0.69531c-5.918 0-12.164 2.5898-16.371 6.7539-4.0234 4.0234-7.0312 10.59-6.7539 16.371 0.27734 5.9648 2.2188 12.164 6.7539 16.371 4.5312 4.1641 10.082 6.7539 16.371 6.7539h11.191 30.43 45 54.898 60.168 60.723 56.609 47.82 34.27c5.457 0 10.914 0.046875 16.371 0h0.69531c5.918 0 12.164-2.5898 16.371-6.7539 4.0234-4.0234 7.0312-10.59 6.7539-16.371-0.27734-5.9648-2.2188-12.164-6.7539-16.371-4.5312-4.1172-10.082-6.7539-16.371-6.7539z"
       id="path70"
       style="fill:#eeeeee;fill-opacity:1" />
  </g>
</svg>
